<svg id="Layer_1" enable-background="new 0 0 512.004 512.004" height="512" viewBox="0 0 512.004 512.004" width="512" xmlns="http://www.w3.org/2000/svg"><g><g clip-rule="evenodd" fill-rule="evenodd"><path d="m402.724 305.273c-7.157-12.396-30.831-12.954-56.54-1.333l3.156 3.786c7.033 8.457 5.878 21.014-2.578 28.047-8.457 7.033-21.014 5.879-28.047-2.578l-5.623-6.746c-13.741 13.7-19.403 28.031-14.889 37.679 12.059.383 17.048 6.519 24.295 10.818 12.958-.292 28.661-5.261 43.264-13.692 28.698-16.569 45.246-41.632 36.962-55.981z" fill="#fff"/><path d="m297 424.111c19.812 0 21.188 15 41 15s21.188-15 41-15 21.188 15 41 15 21.188-15 41-15 21.188 15 41 15v-60.002c-19.812 0-21.188-15-41-15s-21.188 15-41 15-21.188-15-41-15-21.188 15-41 15-21.188-15-41-15-21.188 15-41 15-21.188-15-41-15-21.188 15-41 15-21.188-15-41-15-21.188 15-41 15-21.188-15-41-15-21.188 15-41 15v60.002c19.812 0 21.188-15 41-15s21.188 15 41 15 21.188-15 41-15 21.188 15 41 15 21.189-15 41-15c19.812 0 21.188 15 41 15s21.189-15 41-15z" fill="#99ebfa"/><path d="m338.001 439.111c-19.812 0-21.188-15-41-15s-21.188 15-41 15-21.188-15-41-15-21.188 15-41 15-21.188-15-41-15-21.188 15-41 15-21.188-15-41-15-21.188 15-41 15v44.995h492.001v-44.995c-19.812 0-21.188-15-41-15s-21.188 15-41 15-21.188-15-41-15c-19.813 0-21.189 15-41.001 15z" fill="#33d6f5"/><path d="m224.271 157.198 63.228-24.576c10.269-3.969 15.376-15.512 11.406-25.781-3.969-10.269-15.512-15.376-25.781-11.406-20.562 7.992-42.1 15.904-63.535 23.991z" fill="#ffdcd5"/><path d="m224.271 157.198-14.682-37.773c-22.491 8.484-44.868 17.16-65.886 26.322-10.096 4.401-14.713 16.154-10.312 26.25l40.868 94.039 52.123-22.652-22.879-78.113z" fill="#ffc144"/><path d="m275.311 236.919-48.929 6.464-52.123 22.652 8.043 18.508c3.527 9.576 13.838 15.058 23.891 12.372l67.184-18.103z" fill="#8690af"/><g fill="#ffdcd5"><path d="m275.311 236.919-1.934 41.894 45.339 54.382c7.033 8.457 19.59 9.611 28.047 2.578s9.611-19.59 2.578-28.047l-53.561-64.244c-4.956-5.959-12.775-7.579-20.469-6.563z"/><path d="m156.022 140.492c17.345-7.25 35.419-14.221 53.567-21.067 2.013-4.856 3.049-10.062 3.049-15.319 0-22.091-17.909-40-40-40s-40 17.909-40 40c0 15.732 9.21 29.918 23.384 36.386z"/></g></g><g><path d="m502.001 369.109c-6.724 0-9.906-2.252-14.722-5.662-5.877-4.161-13.191-9.338-26.278-9.338s-20.401 5.178-26.278 9.338c-4.816 3.409-7.998 5.662-14.722 5.662-6.725 0-9.906-2.252-14.722-5.662-3.837-2.717-8.299-5.858-14.569-7.717 20.826-18.275 29.604-39.991 20.674-55.457-9.264-16.046-33.823-19.169-62.231-8.388l-45.685-54.797c-6.655-8.002-17.395-11.677-29.467-10.083l-40.432 5.342-17.89-61.08 75.426-29.317c12.131-4.689 19.467-16.466 19.125-28.781l195.395-75.947c5.147-2.001 7.699-7.796 5.698-12.944-2-5.147-7.792-7.699-12.944-5.698l-195.371 75.937c-8.033-9.325-21.373-13.093-33.508-8.403-13.854 5.385-28.482 10.856-42.628 16.147-1.411.528-2.826 1.057-4.241 1.587-.14-27.451-22.51-49.742-49.993-49.742-27.57 0-50 22.43-50 50 0 12.885 5.061 25.113 13.632 34.253-12.708 7.613-18.122 23.698-12.052 37.624l48.809 112.31c5.481 14.427 20.793 22.28 35.767 18.278l61.002-16.437 30.046 36.039c-8.088 9.874-12.594 19.997-13.091 29.154-7.052 1.779-11.9 5.197-16.029 8.12-4.816 3.409-7.998 5.662-14.722 5.662-6.725 0-9.906-2.252-14.722-5.662-5.877-4.161-13.191-9.338-26.278-9.338s-20.401 5.178-26.278 9.338c-4.816 3.409-7.998 5.662-14.722 5.662s-9.906-2.252-14.722-5.662c-5.877-4.161-13.191-9.338-26.278-9.338s-20.401 5.178-26.278 9.338c-4.816 3.409-7.998 5.662-14.722 5.662s-9.906-2.252-14.722-5.662c-5.877-4.161-13.191-9.338-26.278-9.338s-20.401 5.178-26.278 9.338c-4.816 3.409-7.998 5.662-14.722 5.662-5.523 0-10 4.477-10 10v104.997c0 5.523 4.477 10 10 10h492.001c5.523 0 10-4.477 10-10v-104.997c0-5.523-4.477-10-10-10zm-107.937-58.836c4.077 7.062-6.869 27.06-33.301 42.321-12.007 6.932-24.821 11.308-35.568 12.196-.617-.424-1.25-.871-1.916-1.342-4.214-2.983-9.18-6.479-16.47-8.225.476-3.521 2.426-8.173 6.241-13.446 5.747 5.664 13.349 8.587 21.004 8.587 6.744 0 13.525-2.263 19.103-6.901 6.144-5.109 9.93-12.306 10.662-20.263.461-5.012-.328-9.947-2.25-14.45 17.554-5.45 29.809-3.129 32.495 1.523zm-105.965-60.387 53.554 64.234c1.693 2.036 2.492 4.61 2.25 7.248-.243 2.637-1.498 5.022-3.534 6.716-4.204 3.495-10.468 2.919-13.972-1.293l-42.851-51.398 1.285-27.835c1.226.499 2.363 1.24 3.268 2.328zm-54.22-128.892c14.205-5.313 28.894-10.807 42.85-16.231 5.109-1.972 10.875.575 12.849 5.684 1.975 5.109-.575 10.874-5.702 12.855l-53.907 20.953-7.396-19.028c3.78-1.418 7.552-2.829 11.306-4.233zm-61.24-46.888c16.542 0 30 13.458 30 30 0 2.593-.339 5.148-.994 7.633-15.175 5.748-30.347 11.626-45.051 17.691-8.57-5.45-13.954-15.034-13.954-25.325-.001-16.541 13.457-29.999 29.999-29.999zm-24.941 80.808c17.902-7.803 36.972-15.314 56.163-22.622l7.466 19.208-11.448 4.45c-4.838 1.88-7.433 7.15-5.974 12.132l20.399 69.647-34.861 15.151-36.887-84.878c-2.189-5.026.117-10.897 5.142-13.088zm55.913 132.34c-5.013 1.337-10.137-1.313-11.926-6.167-.066-.178-.137-.355-.212-.529l-4.057-9.336 41.665-18.108 35.689-4.715-1.046 22.658zm-183.611 186.852v-25.923c7.709-1.676 12.858-5.328 17.211-8.422 4.787-3.402 7.949-5.65 14.623-5.65s9.836 2.248 14.623 5.65c5.86 4.166 13.152 9.35 26.21 9.35s20.351-5.184 26.21-9.35c4.787-3.402 7.95-5.65 14.623-5.65s9.836 2.248 14.623 5.65c5.86 4.166 13.153 9.35 26.21 9.35s20.35-5.184 26.21-9.348c4.001-2.844 6.892-4.898 11.663-5.48 5.482-.668 9.384-5.655 8.716-11.137s-5.652-9.388-11.137-8.716c-9.804 1.195-15.917 5.54-20.828 9.031-4.788 3.403-7.951 5.65-14.625 5.65-6.673 0-9.836-2.248-14.623-5.65-5.86-4.166-13.153-9.35-26.21-9.35s-20.35 5.184-26.21 9.349c-4.787 3.403-7.95 5.651-14.624 5.651-6.673 0-9.835-2.248-14.623-5.65-5.86-4.166-13.153-9.35-26.21-9.35s-20.351 5.184-26.21 9.35c-2.036 1.447-3.78 2.683-5.624 3.628v-39.126c7.193-1.76 12.098-5.233 16.278-8.192 4.816-3.409 7.998-5.662 14.722-5.662s9.906 2.252 14.722 5.662c5.877 4.161 13.191 9.338 26.278 9.338s20.401-5.178 26.278-9.338c4.816-3.409 7.998-5.662 14.722-5.662 6.725 0 9.906 2.252 14.722 5.662 5.877 4.161 13.191 9.338 26.278 9.338s20.401-5.178 26.278-9.338c4.816-3.409 7.998-5.662 14.722-5.662s9.906 2.252 14.722 5.662c5.877 4.161 13.191 9.338 26.278 9.338s20.401-5.178 26.278-9.338c4.816-3.409 7.998-5.662 14.722-5.662 6.725 0 9.906 2.252 14.722 5.662 5.877 4.161 13.191 9.338 26.278 9.338s20.401-5.178 26.278-9.338c4.816-3.409 7.998-5.662 14.722-5.662s9.906 2.252 14.722 5.662c5.877 4.161 13.191 9.338 26.278 9.338s20.401-5.178 26.278-9.338c4.816-3.409 7.998-5.662 14.722-5.662s9.906 2.252 14.722 5.662c4.18 2.959 9.085 6.432 16.278 8.192v39.126c-1.844-.945-3.587-2.181-5.624-3.629-5.86-4.165-13.152-9.349-26.21-9.349s-20.351 5.184-26.21 9.35c-4.787 3.402-7.95 5.65-14.623 5.65s-9.836-2.248-14.623-5.65c-5.86-4.166-13.152-9.35-26.21-9.35s-20.351 5.184-26.21 9.35c-4.787 3.402-7.949 5.65-14.623 5.65s-9.837-2.248-14.625-5.65c-4.913-3.492-11.028-7.838-20.836-9.032-5.481-.663-10.468 3.236-11.135 8.718s3.236 10.468 8.718 11.135c4.773.581 7.666 2.636 11.667 5.48 5.86 4.165 13.153 9.349 26.211 9.349s20.351-5.184 26.21-9.35c4.787-3.402 7.949-5.65 14.623-5.65 6.673 0 9.836 2.248 14.623 5.65 5.86 4.166 13.152 9.35 26.21 9.35s20.351-5.184 26.21-9.35c4.787-3.402 7.95-5.65 14.623-5.65s9.836 2.248 14.623 5.65c4.353 3.094 9.502 6.746 17.211 8.422v25.923z"/><path d="m256 429.111h-.007c-5.523 0-9.996 4.477-9.996 10s4.48 10 10.003 10 10-4.477 10-10-4.477-10-10-10z"/></g></g></svg>