<svg id="Layer_1" enable-background="new 0 0 512.181 512.181" height="512" viewBox="0 0 512.181 512.181" width="512" xmlns="http://www.w3.org/2000/svg"><g><g><g><g><path d="m336.131 134.543c-.291-2.271 2.664-3.374 3.948-1.479.023.033.045.067.068.1 17.102 25.206 38.171 42.438 47.059 38.49 6.135-2.726 4.858-14.834-2.146-30.363-1.051-2.331 1.873-4.413 3.731-2.656l.13.123c19.935 18.821 41.323 30.122 47.771 25.242s-4.485-24.094-24.421-42.914l-.057-.054c-1.053-.994.024-2.71 1.375-2.19 6.745 2.596 14.439 5.011 22.703 7.034 29.169 7.14 54.339 6.706 56.219-.97s-20.244-19.688-49.413-26.828c-8.265-2.023-16.204-3.435-23.385-4.248-1.439-.163-1.601-2.183-.208-2.578l.076-.021c26.375-7.484 44.947-19.475 41.482-26.782s-27.654-7.163-54.029.322l-.173.049c-2.459.699-4.091-2.498-2.082-4.079 13.387-10.541 20.112-20.69 15.93-25.941-6.059-7.608-32.705-2.056-59.517 12.401-.036.019-.071.038-.107.058-2.014 1.088-4.126-1.256-2.818-3.135 6.764-9.725 8.981-17.941 4.845-21.352-6.659-5.491-27.254 3.553-46.002 20.2-13.678 12.146-51.528 20.815-52.763 29.003-19.514.71 28.229 27.489 34.75 44.58 8.938 23.425 23.027 40.959 31.469 39.165 5.244-1.116 7.073-9.427 5.565-21.177z" fill="#41ccb4"/></g><g><path d="m181.615 155.719c8.442 1.795 22.531-15.74 31.469-39.165 6.521-17.091 45.693-34.183 43.006-42.014-1.235-8.187-47.341-19.422-61.02-31.568-18.747-16.647-39.343-25.691-46.002-20.2-4.136 3.411-1.919 11.627 4.845 21.352 1.307 1.879-.804 4.223-2.818 3.135-.036-.019-.071-.038-.107-.058-26.81-14.457-53.457-20.009-59.516-12.401-4.182 5.252 2.543 15.4 15.929 25.938 2.009 1.581.377 4.779-2.082 4.079l-.173-.049c-26.375-7.484-50.564-7.628-54.029-.322-3.464 7.308 15.108 19.299 41.483 26.783l.076.021c1.393.395 1.231 2.415-.208 2.578-7.181.813-15.121 2.225-23.385 4.248-29.169 7.14-51.293 19.152-49.413 26.828 1.879 7.676 27.049 8.111 56.219.97 8.265-2.023 15.958-4.438 22.703-7.034 1.351-.52 2.428 1.197 1.375 2.19l-.057.054c-19.937 18.822-30.87 38.036-24.422 42.916s27.836-6.421 47.771-25.242l.13-.123c1.858-1.756 4.782.326 3.731 2.656-7.004 15.529-8.281 27.637-2.146 30.363 8.888 3.949 29.957-13.284 47.059-38.49.023-.033.045-.067.068-.1 1.284-1.895 4.239-.792 3.948 1.479-1.507 11.75.323 20.061 5.566 21.176z" fill="#41ccb4"/></g></g><g><circle cx="256.091" cy="440.233" fill="#ffca21" r="64.448"/><g><path d="m98.549 444.011c0-204.053 70.534-369.471 157.541-369.471s157.541 165.418 157.541 369.471z" fill="#ffca21"/><path d="m256.091 74.54c-6.775 0-13.45 1.004-20 2.95 77.564 23.047 137.541 178.357 137.541 366.521h40c0-204.053-70.534-369.471-157.541-369.471z" fill="#f2bb0c"/><path d="m413.814 444.011h-315.447c-12.505 0-22.643-10.138-22.643-22.643 0-12.505 10.138-22.643 22.643-22.643h315.447c12.505 0 22.643 10.138 22.643 22.643 0 12.505-10.137 22.643-22.643 22.643z" fill="#ffe594"/><path d="m413.814 398.725h-40c12.505 0 22.643 10.137 22.643 22.643 0 12.505-10.138 22.643-22.643 22.643h40c12.505 0 22.643-10.137 22.643-22.643 0-12.506-10.137-22.643-22.643-22.643z" fill="#f7d877"/></g></g><g><g fill="#eb67a5"><path d="m231.861 77.44-63.71 18.152c-.376.078-.752.148-1.127.208-18.984 3.052-31.702-19.164-19.993-34.416l7.294-9.501-7.294-9.501c-11.709-15.252 1.009-37.469 19.993-34.416.375.06.75.129 1.127.208l63.71 18.152z"/><path d="m280.32 26.325 63.71-18.152c.376-.078.752-.148 1.127-.208 18.984-3.052 31.702 19.164 19.993 34.416l-7.294 9.501 7.294 9.501c11.709 15.252-1.009 37.469-19.993 34.416-.375-.06-.75-.129-1.127-.208l-63.71-18.151z"/></g><path d="m256.091 96.084c-20.965 0-37.961-16.995-37.961-37.96v-12.484c0-20.965 16.995-37.96 37.96-37.96h.001c20.965 0 37.96 16.995 37.96 37.96v12.484c0 20.965-16.995 37.96-37.96 37.96z" fill="#f2a7d0"/><path d="m256.091 7.681c-7.342 0-14.192 2.09-20 5.698 10.779 6.697 17.96 18.638 17.96 32.261v12.484c0 13.624-7.181 25.565-17.96 32.262 5.808 3.608 12.659 5.698 20 5.698h.001c20.965 0 37.96-16.995 37.96-37.96v-12.484c-.001-20.964-16.996-37.959-37.961-37.959z" fill="#f294c7"/></g></g><g><path d="m483.028 104.699c-9.883-5.366-23.43-10.305-38.146-13.907-.404-.099-.807-.196-1.209-.292 14.16-6.484 21.676-13.408 24.055-18.654 1.622-3.577 1.662-7.345.113-10.612-3.125-6.591-11.362-9.744-25.245-9.673-5.903.035-12.543.68-19.523 1.871 3.308-4.211 5.749-8.709 6.265-13.149.444-3.817-.511-7.329-2.762-10.155-8.534-10.718-30.471-6.041-49.563 1.486.479-5.879-.822-11.905-3.984-17.271-6.055-10.277-17.066-15.577-28.744-13.824-4.096.614-6.919 4.432-6.305 8.529.613 4.096 4.432 6.921 8.529 6.305 5.579-.835 10.667 1.632 13.596 6.604 2.366 4.015 3.371 10.289-.904 15.857-2.431 3.167-4.863 6.335-7.294 9.502-2.068 2.694-2.068 6.44 0 9.134l7.294 9.501c7.588 9.884-1.074 24.734-13.401 22.348l-47.426-13.513c2.042-5.163 3.176-10.781 3.176-16.661v-12.484c0-5.881-1.135-11.498-3.177-16.662l10.925-3.113c3.983-1.135 6.293-5.285 5.158-9.268s-5.284-6.293-9.268-5.158l-14.937 4.256c-8.338-9.501-20.557-15.516-34.162-15.516-13.604 0-25.823 6.015-34.161 15.516l-51.722-14.736c-18.66-5.302-36.537 12.263-35.042 30.648-19.067-7.516-41.02-12.202-49.559-1.48-2.251 2.826-3.206 6.337-2.762 10.155.516 4.44 2.957 8.938 6.265 13.149-6.98-1.191-13.62-1.835-19.523-1.871-13.898-.069-22.12 3.082-25.245 9.673-1.549 3.267-1.509 7.035.113 10.612 2.378 5.244 9.887 12.163 24.061 18.652-.404.097-.81.195-1.216.294-14.715 3.602-28.262 8.541-38.146 13.907-12.975 7.044-18.617 14.443-16.77 21.989s10.269 11.502 25.031 11.757c11.25.199 25.541-1.683 40.256-5.285.403-.099.806-.198 1.208-.299-9.563 12.292-13.031 21.903-12.718 27.655.213 3.921 1.918 7.283 4.802 9.465 5.817 4.402 14.602 3.393 26.858-3.083 5.218-2.757 10.81-6.396 16.452-10.677-.988 5.263-1.076 10.38.517 14.557 1.37 3.591 3.839 6.264 7.141 7.73 5.57 2.474 12.272.594 17.36-2.017-24.84 56.724-41.681 131.634-46.684 215.292-13.873 2.697-24.381 14.934-24.381 29.584 0 16.621 13.522 30.143 30.143 30.143h15.716c9.697 0 9.697-15 0-15h-15.716c-8.35 0-15.143-6.793-15.143-15.144 0-8.35 6.793-15.143 15.143-15.143h315.447c8.35 0 15.143 6.793 15.143 15.143s-6.793 15.143-15.143 15.143h-259.829c-9.697 0-9.697 15 0 15h31.037c5.434 34.543 35.382 60.67 71.069 60.67 35.666 0 65.609-25.84 71.067-60.67h86.656c16.621 0 30.143-13.522 30.143-30.144 0-14.65-10.508-26.886-24.381-29.584-4.562-76.344-18.923-146.574-41.589-203.253-1.637-4.094-3.312-8.083-5.016-11.987 5.069 2.583 11.743 4.424 17.28 1.965 3.302-1.467 5.771-4.14 7.141-7.73 1.593-4.176 1.505-9.293.517-14.557 5.642 4.281 11.232 7.919 16.452 10.677 12.255 6.476 21.041 7.484 26.858 3.083 2.883-2.182 4.588-5.543 4.801-9.465.313-5.75-3.151-15.354-12.725-27.657.403.101.809.202 1.214.301 14.715 3.603 29.007 5.473 40.256 5.286 14.762-.255 23.183-4.21 25.03-11.757 1.849-7.545-3.793-14.944-16.767-21.988zm-226.937 392.482c-27.434 0-50.577-19.504-55.827-45.67h111.66c-5.258 26.371-28.407 45.67-55.833 45.67zm0-482c16.795 0 30.459 13.664 30.459 30.46v12.484c0 16.796-13.664 30.46-30.459 30.46h-.001c-16.795 0-30.459-13.664-30.459-30.46v-12.484c0-16.796 13.664-30.46 30.46-30.46zm-103.973 6.699c2.998-5.027 8.512-7.527 14.263-6.414l47.426 13.512c-2.042 5.163-3.176 10.781-3.176 16.661v12.484c0 5.881 1.135 11.498 3.177 16.661l-47.426 13.512c-12.325 2.379-20.993-12.458-13.401-22.348l7.294-9.501c2.068-2.693 2.068-6.44 0-9.134l-7.294-9.501c-4.302-5.6-3.266-11.902-.863-15.932zm6.321 117.144c-13.816 17.417-25.655 24.968-29.831 25.655-.354-2.315.118-8.703 5.35-20.303 4.682-10.379-8.096-16.659-15.846-11.071-16.077 15.178-30.432 22.822-36.585 24.151 1.691-5.308 8.879-17.084 23.588-30.971 6.864-6.478-.403-18.037-9.217-14.644-6.695 2.577-14.027 4.847-21.792 6.749-22.601 5.533-38.577 5.485-45.143 4.04 5.155-4.314 19.302-11.736 41.904-17.269 7.763-1.9 15.315-3.273 22.446-4.081 9.465-1.072 10.427-14.688 1.335-17.267-19.397-5.503-31.202-12.625-35.153-16.551 6.072-1.665 22.335-1.514 43.607 4.522 9.382 1.64 17.856-10.119 8.938-17.139-10.026-7.893-13.386-13.349-14.129-15.555 4.981-1.789 23.321.966 46.647 12.999l-3.476 4.528c-7.309 9.521-8.034 22.376-1.847 32.751 6.085 10.203 19.207 16.58 30.971 13.238l20.75-5.912c-11.6 11.234-22.493 25.406-32.508 42.121-.003.003-.007.006-.009.009zm246.076 252.201h-296.849c4.593-74.716 18.702-143.172 40.887-198.199 20.589-51.07 47.309-87.166 75.693-102.5 8.208 8.069 19.453 13.058 31.845 13.058s23.637-4.99 31.845-13.058c28.579 15.43 55.489 51.974 76.124 103.574 21.933 54.848 35.894 122.932 40.455 197.125zm33.562-272.635c-7.767-1.902-15.099-4.172-21.796-6.75-8.89-3.417-16.03 8.212-9.158 14.699 14.661 13.841 21.841 25.61 23.532 30.917-6.154-1.33-20.508-8.973-36.575-24.142-7.561-5.808-20.527.708-15.857 11.061 5.216 11.563 5.701 17.948 5.354 20.281-3.438-.659-13.572-6.114-27.239-22.446-12.388-14.798-20.755-31.553-34.944-45.269l20.582 5.864c25.872 7.371 44.645-25.772 29.125-45.989l-3.475-4.526c23.344-12.035 41.666-14.789 46.646-13-.744 2.205-4.103 7.661-14.128 15.553-8.948 7.04-.517 18.52 8.939 17.14 21.269-6.036 37.532-6.186 43.604-4.521-3.95 3.926-15.749 11.045-35.11 16.54-8.958 2.389-7.875 16.239 1.293 17.279 7.127.807 14.679 2.18 22.446 4.081 22.602 5.532 36.75 12.955 41.904 17.268-6.565 1.445-22.541 1.493-45.143-4.04z"/><path d="m145.87 294.755c-4.062-.81-8.012 1.828-8.821 5.89-3.997 20.054-6.857 39.776-8.504 58.62-.82 9.388 14.083 11.143 14.943 1.306 1.599-18.3 4.381-37.475 8.271-56.994.81-4.063-1.827-8.013-5.889-8.822z"/><path d="m162.454 234.224c-3.92-1.336-8.181.753-9.52 4.673-.17.497-4.216 12.399-9.125 31.819-2.311 9.144 12.137 13.19 14.543 3.676 4.745-18.771 8.738-30.531 8.777-30.648 1.337-3.92-.756-8.182-4.675-9.52z"/></g></g></svg>