<svg id="Capa_1" enable-background="new 0 0 512 512" height="512" viewBox="0 0 512 512" width="512" xmlns="http://www.w3.org/2000/svg"><g><g><g><path d="m503.198 203.538-45.057-132.558c-2.802-8.245-9.049-14.865-17.117-18.141l-110.427-44.839h-149.194l-110.427 44.839c-8.068 3.276-14.315 9.896-17.118 18.141l-45.056 132.558c-2.786 8.197 1.939 17.042 10.302 19.283l70.792 18.969v247.21c0 8.284 6.715 15 15 15h302.209c8.284 0 15-6.716 15-15v-247.21l70.792-18.969c8.362-2.24 13.087-11.085 10.301-19.283z" fill="#ffdd91"/><g><path d="m407.104 486h-302.209c-8.284 0-15-6.716-15-15v18c0 8.284 6.715 15 15 15h302.209c8.284 0 15-6.716 15-15v-18c0 8.284-6.715 15-15 15z" fill="#f9cd80"/></g><path d="m181.403 8s4.667 66.634 74.597 66.634 74.597-66.634 74.597-66.634z" fill="#f4bd6c"/><path d="m256 56.634c-46.054 0-63.8-28.899-70.551-48.634h-4.046s4.667 66.634 74.597 66.634 74.597-66.634 74.597-66.634h-4.046c-6.751 19.735-24.497 48.634-70.551 48.634z" fill="#f2ad51"/><g fill="#f9cd80"><path d="m71.896 236.967 18 4.823v-69.772c-9.941 0-18 8.059-18 18z"/><path d="m440.104 236.967-18 4.823v-69.772c9.941 0 18 8.059 18 18z"/></g></g><g><g><path d="m256 174.842c-7.199-22.974-52.87-26.699-58.029 11.015-5.869 42.897 58.029 73.964 58.029 73.964s63.897-31.067 58.029-73.963c-5.159-37.715-50.83-33.989-58.029-11.016z" fill="#f95750"/></g></g><path d="m313.423 182.417c-6.635 30.586-45.12 52.881-55.074 58.19-1.473.785-3.227.785-4.699 0-9.954-5.309-48.438-27.604-55.074-58.19-.24 1.106-.443 2.253-.606 3.44-5.868 42.897 58.03 73.964 58.03 73.964s63.897-31.067 58.029-73.963c-.162-1.188-.365-2.335-.606-3.441z" fill="#e84642"/></g><g><path d="m142.526 294.178c-4.15 0-7.514 3.364-7.514 7.515v42.035c0 4.15 3.364 7.515 7.514 7.515s7.514-3.365 7.514-7.515v-5.563l11.371 10.971c2.983 2.88 7.741 2.798 10.624-.19 2.881-2.987 2.796-7.744-.191-10.626l-17.014-16.416 15.39-14.148c3.056-2.809 3.256-7.563.447-10.618-2.807-3.056-7.562-3.256-10.616-.448l-10.011 9.202v-4.2c0-4.149-3.364-7.514-7.514-7.514z"/><path d="m236.137 294.178c-4.038-.08-7.584 3.483-7.514 7.515v42.035c0 4.15 3.364 7.515 7.514 7.515s7.514-3.365 7.514-7.515v-10.783c1.624-.007 3.163-.012 4.189-.012 10.812 0 19.608-8.693 19.608-19.377 0-10.685-8.796-19.377-19.608-19.377h-11.703zm16.283 19.377c0 2.357-2.098 4.348-4.58 4.348-1.018 0-2.538.005-4.147.012-.007-1.693-.016-6.925-.02-8.708h4.168c2.482 0 4.579 1.992 4.579 4.348z"/><path d="m359.558 343.728v-10.783c1.624-.007 3.163-.012 4.189-.012 10.812 0 19.608-8.693 19.608-19.377 0-10.685-8.796-19.377-19.608-19.377h-11.703c-4.038-.08-7.584 3.483-7.514 7.515v42.035c0 4.15 3.364 7.515 7.514 7.515s7.514-3.366 7.514-7.516zm4.189-34.521c2.482 0 4.58 1.991 4.58 4.348s-2.098 4.348-4.58 4.348c-1.018 0-2.539.005-4.147.012-.008-1.693-.016-6.925-.021-8.708z"/><path d="m177.62 322.71c0 4.15 3.364 7.515 7.514 7.515h25.442c4.15 0 7.514-3.364 7.514-7.515s-3.364-7.515-7.514-7.515h-25.442c-4.15.001-7.514 3.365-7.514 7.515z"/><path d="m276.743 322.71c0 15.733 12.798 28.532 28.53 28.532 15.731 0 28.529-12.799 28.529-28.532s-12.798-28.532-28.529-28.532c-15.732 0-28.53 12.8-28.53 28.532zm28.529-13.503c7.444 0 13.502 6.057 13.502 13.503s-6.057 13.503-13.502 13.503-13.502-6.057-13.502-13.503 6.058-13.503 13.502-13.503z"/><path d="m82.073 403.679c0 4.15 3.364 7.515 7.514 7.515s7.514-3.364 7.514-7.515v-231.825c0-4.15-3.364-7.515-7.514-7.515s-7.514 3.365-7.514 7.515v60.115l-61.465-16.471c-4.093-.996-6.598-5.688-5.152-9.644l18.703-55.028c1.335-3.93-.766-8.198-4.695-9.533-3.931-1.334-8.197.768-9.532 4.697l-18.704 55.027c-4.318 11.891 3.207 25.978 15.491 28.998l65.355 17.514v156.15z"/><path d="m422.414 301.357c-4.15 0-7.514 3.364-7.514 7.515v180.585c0 4.143-3.371 7.515-7.514 7.515h-302.771c-4.144 0-7.514-3.371-7.514-7.515v-55.719c0-4.15-3.364-7.515-7.514-7.515s-7.514 3.365-7.514 7.515v55.719c0 12.431 10.113 22.544 22.542 22.544h302.771c12.429 0 22.542-10.113 22.542-22.544v-180.586c-.001-4.15-3.364-7.514-7.514-7.514z"/><path d="m510.772 201.017-45.141-132.817c-3.511-10.334-11.325-18.615-21.436-22.721l-110.633-44.927c-.097-.04-.198-.069-.297-.104-.106-.038-.211-.079-.318-.112-.139-.043-.28-.076-.421-.111-.1-.025-.199-.053-.3-.074-.16-.032-.321-.053-.483-.075-.086-.012-.17-.029-.256-.037-.25-.025-.5-.039-.751-.039h-149.471c-.251 0-.502.014-.751.039-.086.009-.171.026-.256.037-.162.022-.323.043-.483.075-.101.021-.2.049-.3.074-.141.035-.282.068-.421.111-.108.033-.212.074-.318.112-.099.035-.2.065-.297.104l-110.634 44.927c-10.111 4.106-17.925 12.387-21.436 22.721l-16.774 49.357c-1.336 3.929.767 8.198 4.695 9.533 3.932 1.336 8.198-.767 9.532-4.697l16.774-49.356c2.108-6.2 6.796-11.169 12.862-13.633l101.931-41.393c1.578 7.008 4.639 16.85 10.513 26.727 10.053 16.905 30.375 37.056 70.098 37.056s60.045-20.151 70.098-37.056c5.874-9.877 8.935-19.719 10.513-26.727l101.931 41.393c6.066 2.464 10.754 7.433 12.862 13.633l45.14 132.818c1.446 3.957-1.06 8.648-5.152 9.644l-61.465 16.471v-60.115c0-4.15-3.364-7.515-7.514-7.515s-7.514 3.365-7.514 7.515v106.959c0 4.15 3.364 7.515 7.514 7.515s7.514-3.365 7.514-7.515v-31.284l65.355-17.514c12.285-3.021 19.809-17.108 15.49-28.999zm-197.59-163.961c-11.724 19.713-30.962 29.709-57.182 29.709-48.701 0-62.266-35.363-65.935-51.735h131.825c-1.317 5.748-3.864 13.88-8.708 22.026z"/><path d="m286.92 149.946c-12.126-1.02-23.538 3.197-30.92 10.699-7.382-7.502-18.782-11.721-30.92-10.699-14.627 1.229-31.414 11.005-34.662 34.755-6.542 47.826 59.482 80.517 62.296 81.885 2.074 1.009 4.497 1.009 6.571 0 2.814-1.368 68.839-34.059 62.296-81.885-3.247-23.749-20.034-33.525-34.661-34.755zm-4.328 83.059c-10.376 8.981-21.287 15.425-26.592 18.334-5.309-2.91-16.218-9.353-26.592-18.334-12.412-10.744-26.669-27.491-24.1-46.267 2.504-18.305 15.543-21.355 21.031-21.816.734-.062 1.466-.092 2.193-.092 9.418 0 18.089 5.051 20.297 12.1.982 3.135 3.886 5.268 7.171 5.268 3.284 0 6.188-2.133 7.171-5.268 2.378-7.594 12.251-12.87 22.491-12.008 5.489.461 18.527 3.511 21.031 21.816 2.568 18.776-11.689 35.524-24.101 46.267z"/></g></g></svg>