<svg id="Capa_1" enable-background="new 0 0 512.055 512.055" height="512" viewBox="0 0 512.055 512.055" width="512" xmlns="http://www.w3.org/2000/svg"><g id="XMLID_675_"><path id="XMLID_1932_" d="m384.027 70c0-11.046-8.954-20-20-20h-334c-11.046 0-20 8.954-20 20v310c0 11.046 8.954 20 20 20h332.667c11.782 0 21.333-9.551 21.333-21.333z" fill="#fff"/><path id="XMLID_1931_" d="m364.027 50h-334c-11.046 0-20 8.954-20 20v77h374v-77c0-11.046-8.954-20-20-20z" fill="#b3e9f8"/><path id="XMLID_1927_" d="m118.091 10c-12.15 0-22 9.85-22 22v46.5c0 12.15 9.85 22 22 22 12.15 0 22-9.85 22-22v-46.5c0-12.151-9.85-22-22-22z" fill="#fff"/><path id="XMLID_1926_" d="m275.964 10c-12.15 0-22 9.85-22 22v46.5c0 12.15 9.85 22 22 22 12.15 0 22-9.85 22-22v-46.5c0-12.151-9.85-22-22-22z" fill="#fff"/><g id="XMLID_1913_" fill="#b3e9f8"><circle id="XMLID_1912_" cx="87.027" cy="218.5" r="32"/><circle id="XMLID_1911_" cx="197.027" cy="218.5" r="32"/><circle id="XMLID_1910_" cx="307.027" cy="218.5" r="32"/><circle id="XMLID_1909_" cx="87.027" cy="328.5" r="32"/></g><g id="XMLID_2308_"><g fill="#b3e9f8"><path id="XMLID_2372_" d="m377.027 387.888-44-72.833h-53.75l30 72.833z"/><path id="XMLID_2020_" d="m422.027 377.333h-209.147l-15.853-45.445h-32v45.445c0 44.183 35.817 80 80 80h257c0-44.183-35.817-80-80-80z"/><path id="XMLID_2061_" d="m384.527 429.222-44 72.833h-53.75l30-72.833z"/></g><path id="XMLID_1766_" d="m422.027 367.333h-28v-297.333c0-16.542-13.458-30-30-30h-56.063v-8c0-17.645-14.355-32-32-32s-32 14.355-32 32v8h-93.873v-8c0-17.645-14.355-32-32-32s-32 14.355-32 32v8h-56.064c-16.542 0-30 13.458-30 30v310c0 16.542 13.458 30 30 30h131.138c13.104 33.523 45.753 57.333 83.862 57.333h45.237l-12.733 30.913c-1.271 3.085-.919 6.601.937 9.372 1.856 2.772 4.974 4.437 8.31 4.437h53.75c3.502 0 6.749-1.832 8.56-4.829l24.1-39.893h128.84c5.522 0 10-4.478 10-10-.001-49.626-40.375-90-90.001-90zm-110.402 0-17.414-42.278h33.175l25.541 42.278zm-47.661-335.333c0-6.617 5.383-12 12-12s12 5.383 12 12v46.5c0 6.617-5.383 12-12 12s-12-5.383-12-12zm-157.873 0c0-6.617 5.383-12 12-12s12 5.383 12 12v46.5c0 6.617-5.383 12-12 12s-12-5.383-12-12zm-76.064 358c-5.514 0-10-4.486-10-10v-310c0-5.514 4.486-10 10-10h56.063v18.5c0 17.645 14.355 32 32 32s32-14.355 32-32v-18.5h93.873v18.5c0 17.645 14.355 32 32 32s32-14.355 32-32v-18.5h56.063c5.514 0 10 4.486 10 10v293.583l-32.44-53.699c-1.811-2.997-5.058-4.829-8.56-4.829h-53.75c-3.336 0-6.453 1.664-8.31 4.437-1.855 2.771-2.207 6.287-.937 9.372l19.964 48.47h-70.013l-13.513-38.738c-1.401-4.016-5.189-6.706-9.442-6.706h-32c-5.522 0-10 4.478-10 10v45.444c0 4.299.31 8.527.896 12.667h-125.894zm355.242 57.333 7.818-12.94c2.855-4.728 1.339-10.874-3.389-13.73-4.728-2.854-10.874-1.339-13.73 3.389l-41.082 68.004h-33.174l24.312-59.024c2.104-5.106-.331-10.951-5.438-13.055-5.106-2.104-10.951.332-13.055 5.438l-9.029 21.92h-53.475c-38.598 0-70-31.402-70-70v-35.444h14.897l13.513 38.738c1.401 4.016 5.189 6.706 9.442 6.706h209.147c35.203 0 64.421 26.122 69.288 60h-106.045z" fill="#80b6ff"/></g></g></svg>